# xmcd CD database file
#
# Track frame offsets:
#	150
#	13230
#	49722
#	84472
#	113522
#	155985
#	201435
#	235690
#	264210
#	266682
#
# Disc length: 4183 seconds
#
# Revision: 0
# Processed by: cddbd v1.5.1PL2 Copyright (c) Steve Scherf et al.
# Submitted via: CDex 1.51
#
DISCID=8110550a
DTITLE=悠久幻想曲 - 悠久音楽祭〜エンフィールドからシープクレストへ〜ドラマ編
DYEAR=1900
DGENRE=ゲーム関連
TTITLE0=メロディ（西原久美子）、パティ（長沢美樹）、アルベルト（置鮎龍太郎）/オープニングナレーション〜メロディからお知らせ
TTITLE1=トリーシャ（飯塚雅弓）、ディアーナ（浅田葉子）/「銀翼よ、飛べ！」〜小説版悠久幻想曲セカンドアルバムより
TTITLE2=アレフ（子安武人）、シーラ（氷上恭子）、メロディ（西原久美子）/「謎の猫少女あらわる」〜小説版悠久幻想曲より
TTITLE3=パティ（長沢美樹）、シーラ（氷上恭子）、]アレフ（子安武人）、アルベルト（置鮎龍太郎）/「迷宮からの脱出」〜CDドラマ版悠久幻想曲より
TTITLE4=アルベルト（置鮎龍太郎）、ディアーナ（浅田葉子）、トリーシャ（飯塚雅弓）、エル（折笠愛）/「ディアーナの憂鬱」〜ゲーム版悠久幻想曲セカンドアルバムより
TTITLE5=アレフ（子安武人）、シーラ（氷上恭子）、エル（折笠愛）、メロディ（西原久美子）、パティ（長沢美樹）、ディアーナ（浅田葉子）/「メロディの乱」〜ゲーム版悠久幻想曲より
TTITLE6=エル（折笠愛）、パティ（長沢美樹）、トリーシャ（飯塚雅弓）、メロディ（西原久美子）、アルベルト（置鮎龍太郎）/さくら亭の乱」〜CDドラマ悠久幻想曲アンサンブルVOL 1より
TTITLE7=フローネ（堀江由衣）、バーシア（池澤春菜）、ゼファー（三木眞一郎）、ティセ（麻績村まゆ子）、メルフィ（笠原弘子）/「悠久幻想曲3 Perpetual Blue」より
TTITLE8=メロディ（西原久美子）/エンディングナレーション〜メロディからお礼
TTITLE9=ルー（松本保典）、イヴ（天野由梨）/ルーとイヴの「帰ってきた裏ドラナイト」
EXTD=
EXTT0=
EXTT1=
EXTT2=
EXTT3=
EXTT4=
EXTT5=
EXTT6=
EXTT7=
EXTT8=
EXTT9=
PLAYORDER=
